<?xml version="1.0" encoding="UTF-8"?>
<svg version="1.1" xmlns="http://www.w3.org/2000/svg" width="50" height="50">
<path d="M0 0 C13.2 0 26.4 0 40 0 C40 3.63 40 7.26 40 11 C39.34 10.67 38.68 10.34 38 10 C37.505 6.535 37.505 6.535 37 3 C25.78 3 14.56 3 3 3 C3 17.52 3 32.04 3 47 C14.22 47 25.44 47 37 47 C37.33 44.69 37.66 42.38 38 40 C38.66 39.67 39.32 39.34 40 39 C40 42.63 40 46.26 40 50 C26.8 50 13.6 50 0 50 C0 33.5 0 17 0 0 Z " fill="#FFFFFF" transform="translate(0,0)"/>
<path d="M0 0 C3.98874822 0.55017217 5.98075809 2.48687866 8.8125 5.25 C10.02873047 6.40242188 10.02873047 6.40242188 11.26953125 7.578125 C13 10 13 10 13.03515625 12.49609375 C11.73589382 15.63883797 10.05531854 17.44116977 7.625 19.8125 C6.83351563 20.60269531 6.04203125 21.39289062 5.2265625 22.20703125 C3 24 3 24 0 24 C1 20 1 20 7 14 C-2.57 13.67 -12.14 13.34 -22 13 C-22 12.34 -22 11.68 -22 11 C-12.43 10.67 -2.86 10.34 7 10 C4.69 7.69 2.38 5.38 0 3 C0 2.01 0 1.02 0 0 Z " fill="#FFFFFF" transform="translate(37,13)"/>
</svg>
